<?xml version="1.0" encoding="UTF-8" standalone="no"?>
<svg xmlns:dc="http://purl.org/dc/elements/1.1/" xmlns:cc="http://creativecommons.org/ns#" xmlns:rdf="http://www.w3.org/1999/02/22-rdf-syntax-ns#" xmlns:svg="http://www.w3.org/2000/svg" xmlns="http://www.w3.org/2000/svg" xmlns:xlink="http://www.w3.org/1999/xlink" xmlns:sodipodi="http://sodipodi.sourceforge.net/DTD/sodipodi-0.dtd" xmlns:inkscape="http://www.inkscape.org/namespaces/inkscape" width="500" height="500" viewBox="0 0 500 500" id="svg7053" version="1.1">
  
  
  
  <defs id="defs7065">
    <linearGradient id="linearGradient25033" inkscape:collect="always">
      <stop id="stop25035" offset="0" style="stop-color:#000000;stop-opacity:1;"/>
      <stop id="stop25037" offset="1" style="stop-color:#000000;stop-opacity:0;"/>
    </linearGradient>
    
    <linearGradient gradientUnits="userSpaceOnUse" y2="329.05219" x2="540.31812" y1="102.13808" x1="147.29138" id="linearGradient25039" xlink:href="#linearGradient25033" inkscape:collect="always" gradientTransform="matrix(0.97041072,0,0,0.97041072,9.7344685,30.211935)"/>
  </defs>
  <rect ry="93.620178" y="5" x="5" height="490" width="490" id="rect5918" style="opacity:1;fill:#37abc8;fill-opacity:1;fill-rule:nonzero;stroke:none;stroke-width:15;stroke-linecap:round;stroke-linejoin:miter;stroke-miterlimit:4;stroke-dasharray:none;stroke-opacity:1"/>
  <g clip-path="url(#clipPath25029)" transform="matrix(1.0304915,0,0,1.0304915,-10.031287,-7.133142)" id="g7057">
    <path style="opacity:1;fill:url(#linearGradient25039);fill-opacity:1;fill-rule:nonzero;stroke:#004455;stroke-width:0;stroke-linecap:square;stroke-linejoin:miter;stroke-miterlimit:4;stroke-dasharray:none;stroke-opacity:1" d="m 252.75412,445.90215 193.70629,193.69439 c 23.27905,-60.44825 59.86758,-114.24714 99.26334,-165.18627 31.66159,-39.58093 44.55546,-95.86291 23.86309,-143.33478 -8.24723,-22.44718 -24.80708,-39.62399 -41.54888,-55.8955 L 341.81313,89.185959 Z" id="path20933" inkscape:connector-curvature="0" sodipodi:nodetypes="ccccccc"/>
    <g id="g5744" style="fill:#cbe9f1;fill-opacity:1;stroke:#164450;stroke-opacity:1">
      <circle style="opacity:1;fill:#cbe9f1;fill-opacity:1;fill-rule:nonzero;stroke:#164450;stroke-width:0;stroke-linecap:square;stroke-linejoin:miter;stroke-miterlimit:4;stroke-dasharray:none;stroke-opacity:1" id="path7691" cx="252.36703" cy="188" r="133.274"/>
      <path style="fill:#cbe9f1;fill-opacity:1;fill-rule:evenodd;stroke:#164450;stroke-width:0;stroke-linecap:butt;stroke-linejoin:miter;stroke-miterlimit:4;stroke-dasharray:none;stroke-opacity:1" d="m 119.09301,188 c 4.15729,95.05619 70.2127,103.66353 133.274,257.51599 C 315.40904,291.66353 381.47033,283.05619 385.64101,188 Z" id="path6497" inkscape:connector-curvature="0" sodipodi:nodetypes="cccc"/>
    </g>
    <g id="g25952" transform="translate(-1.9408214,-23.289854)">
      <path style="opacity:1;fill:#164450;fill-opacity:1;fill-rule:nonzero;stroke:#0b2228;stroke-width:0;stroke-linecap:round;stroke-linejoin:miter;stroke-miterlimit:4;stroke-dasharray:none;stroke-opacity:1" d="m 252.36189,424.1987 c 1.63999,1.58651 3.19835,3.23252 4.8812,4.8469 5.73844,-12.8472 11.47687,-25.69441 17.21531,-38.54161 -0.002,-58.02942 -0.004,-116.05885 -0.006,-174.08827 -0.21721,-3.1438 -3.1349,-4.73861 -4.99375,-6.91458 -2.85032,-3.29809 -7.23892,-4.88937 -11.61206,-4.64372 -4.43185,66.02999 -4.914,132.24786 -5.4374,198.40099 -0.0298,6.98005 -0.0508,13.96017 -0.0473,20.94029 z" id="path25089" inkscape:connector-curvature="0"/>
      <path style="opacity:1;fill:#216778;fill-opacity:1;fill-rule:nonzero;stroke:#0b2228;stroke-width:0;stroke-linecap:round;stroke-linejoin:miter;stroke-miterlimit:4;stroke-dasharray:none;stroke-opacity:1" d="m 247.88541,204.88505 c -7.21385,0 -12.73996,2.98729 -12.73995,6.66643 l 4.1e-4,174.09701 17.21639,38.551 17.21561,-38.54199 -0.006,-174.08814 c -1.2e-4,-3.67916 -4.5168,-6.68431 -11.73065,-6.68431 z" id="rect6558" inkscape:connector-curvature="0" sodipodi:nodetypes="sscccsss"/>
    </g>
    <g style="fill:#0b2228;fill-opacity:0.76923078" id="g14600" transform="translate(2.3670169,0)">
      <path inkscape:connector-curvature="0" id="path5042" d="m 145.01409,196.54576 c 0.0195,0.0197 0.0392,0.0392 0.0589,0.0589 0.019,0.0191 0.0381,0.0381 0.0572,0.0572 0.009,0.009 0.0194,0.0177 0.0286,0.0269 l 0.002,0.002 c 0.008,0.008 0.0143,0.0159 0.0219,0.0235 0.0193,0.0194 0.0379,0.0395 0.0572,0.0589 0.0143,0.0143 0.0294,0.0277 0.0437,0.042 0.0134,0.0135 0.0269,0.0269 0.0404,0.0404 0.019,0.0191 0.0381,0.0381 0.0572,0.0572 0.003,0.003 0.007,0.005 0.0101,0.009 0.019,0.0191 0.0364,0.0398 0.0554,0.0589 0.0132,0.0132 0.0272,0.0255 0.0404,0.0386 0.0134,0.0135 0.0269,0.0269 0.0404,0.0404 0.0137,0.0138 0.0266,0.0283 0.0404,0.042 0.0132,0.0132 0.0272,0.0255 0.0404,0.0386 0.0128,0.0129 0.0257,0.0257 0.0386,0.0386 0.0132,0.0132 0.0255,0.0272 0.0387,0.0404 0.0182,0.0182 0.0373,0.0356 0.0555,0.0538 l 0.0235,0.0235 c 0.0132,0.0132 0.0272,0.0255 0.0404,0.0387 0.0129,0.0129 0.0258,0.0257 0.0386,0.0386 l 0.009,0.009 c 0.004,0.004 0.008,0.009 0.0118,0.0134 0.0182,0.0182 0.0356,0.0373 0.0538,0.0554 0.0182,0.0182 0.0373,0.0356 0.0555,0.0538 l 0.002,0.002 0.003,0.003 c 0.0179,0.018 0.0359,0.0358 0.0538,0.0538 0.0123,0.0124 0.0246,0.0246 0.037,0.037 0.0123,0.0124 0.0246,0.0246 0.037,0.037 0.0123,0.0124 0.0246,0.0246 0.037,0.037 0.0179,0.018 0.0359,0.0359 0.0538,0.0538 l 0.003,0.003 c 0.0173,0.0175 0.0348,0.0347 0.0522,0.0522 0.012,0.012 0.0232,0.025 0.0353,0.037 0.0117,0.0118 0.0236,0.0235 0.0353,0.0353 0.017,0.0171 0.035,0.0333 0.0521,0.0504 l 0.0201,0.0201 c 0.005,0.006 0.0129,0.0129 0.0185,0.0185 0.017,0.0171 0.0333,0.035 0.0504,0.0521 0.017,0.0171 0.0367,0.035 0.0538,0.0522 0.0282,0.0284 0.0574,0.0558 0.0857,0.0841 0.003,0.003 0.006,0.008 0.0101,0.0118 l 0.007,0.007 c 0.0285,0.0287 0.0572,0.0571 0.0857,0.0857 l 0.0134,0.0134 0.002,0.002 c 0.0162,0.0163 0.0325,0.0325 0.0487,0.0487 0.0109,0.0109 0.021,0.0227 0.0319,0.0337 0.0159,0.016 0.0345,0.0328 0.0504,0.0487 0.0159,0.016 0.0312,0.0328 0.0471,0.0487 l 0.0152,0.0152 0.0168,0.0168 c 0.0154,0.0155 0.0317,0.03 0.0471,0.0454 0.0159,0.016 0.0311,0.0328 0.0471,0.0487 0.0103,0.0104 0.0216,0.0199 0.0319,0.0302 0.0151,0.0152 0.0303,0.0302 0.0454,0.0454 0.0157,0.0158 0.0314,0.0313 0.0471,0.0471 0.005,0.005 0.009,0.0103 0.0134,0.0152 0.005,0.005 0.0114,0.01 0.0168,0.0151 0.0145,0.0146 0.0292,0.0291 0.0437,0.0437 0.0151,0.0152 0.0303,0.0302 0.0454,0.0454 0.01,0.01 0.0188,0.0204 0.0286,0.0302 0.0143,0.0143 0.0294,0.0277 0.0437,0.042 0.0148,0.0149 0.0288,0.0306 0.0437,0.0454 l 0.0134,0.0134 c 0.0143,0.0143 0.0294,0.0277 0.0437,0.042 l 0.0134,0.0134 c 0.0179,0.018 0.0375,0.0375 0.0555,0.0555 0.0139,0.014 0.0281,0.028 0.042,0.042 0.004,0.004 0.008,0.009 0.0118,0.0134 0.014,0.014 0.0297,0.0263 0.0437,0.0404 0.004,0.004 0.008,0.009 0.0118,0.0134 l 0.0134,0.0134 0.0134,0.0134 c 0.0134,0.0135 0.0269,0.0269 0.0404,0.0404 0.0123,0.0124 0.0263,0.0263 0.0386,0.0386 0.0132,0.0132 0.0255,0.0271 0.0387,0.0404 0.009,0.009 0.0169,0.0168 0.0252,0.0252 l 0.0118,0.0118 0.0134,0.0134 0.0252,0.0252 0.0252,0.0252 c 0.012,0.012 0.025,0.0232 0.037,0.0353 0.0204,0.0205 0.0417,0.04 0.0622,0.0605 l 0,0.002 0.0101,0.0101 c 0.0123,0.0124 0.0246,0.0246 0.037,0.037 l 0.0235,0.0235 c 0.0112,0.0113 0.0224,0.0224 0.0337,0.0336 0.0151,0.0152 0.0303,0.0302 0.0454,0.0454 0.0114,0.0115 0.0221,0.0238 0.0337,0.0353 0.007,0.007 0.0145,0.0146 0.0219,0.0219 l 0.0101,0.0101 0.0118,0.0118 0.0219,0.0219 c 0.007,0.007 0.0145,0.0146 0.0219,0.0219 0.0103,0.0104 0.0216,0.0199 0.0319,0.0302 0.0106,0.0107 0.0213,0.0213 0.0319,0.0319 0.0137,0.0138 0.0283,0.0266 0.042,0.0404 0.003,0.003 0.005,0.007 0.009,0.0101 l 0.0101,0.0101 0.0118,0.0118 c 0.0159,0.016 0.0311,0.0327 0.0471,0.0487 l 0.0201,0.0201 c 0.009,0.009 0.0194,0.0176 0.0286,0.0268 0.01,0.01 0.0188,0.0204 0.0286,0.0303 l 0.0185,0.0185 0.0185,0.0185 c 0.009,0.009 0.0182,0.0165 0.0269,0.0252 0.0117,0.0118 0.0235,0.0235 0.0353,0.0353 0.009,0.009 0.0165,0.0182 0.0252,0.0269 l 0.009,0.009 0.009,0.009 0.009,0.009 0.009,0.009 0.009,0.009 0.009,0.009 c 0.008,0.008 0.0171,0.0154 0.0252,0.0235 0.0106,0.0107 0.0213,0.0213 0.0319,0.0319 0.008,0.008 0.0154,0.017 0.0235,0.0252 l 0.0152,0.0152 0.0152,0.0152 0.007,0.007 0.009,0.009 c 0.007,0.007 0.0149,0.0132 0.0219,0.0201 l 0.0286,0.0286 0.002,0.002 c 0.006,0.007 0.0121,0.0137 0.0185,0.0201 l 0.007,0.007 0.007,0.007 0.0134,0.0134 0.007,0.007 0.007,0.007 c 0.006,0.007 0.0138,0.012 0.0201,0.0185 l 0.0319,0.0319 0.005,0.005 c 0.002,0.002 0.002,0.003 0.003,0.005 0.005,0.005 0.0101,0.0101 0.0151,0.0152 l 0.005,0.005 0.007,0.007 c 0.005,0.005 0.0114,0.01 0.0168,0.0152 0.002,0.002 0.002,0.003 0.003,0.005 l 0.0134,0.0134 0.0101,0.0101 0.005,0.005 c 0.005,0.005 0.0114,0.01 0.0168,0.0152 l 0.0101,0.0101 0.005,0.005 0.005,0.005 0.005,0.005 0.005,0.005 c 0.003,0.003 0.005,0.007 0.009,0.0101 0.005,0.005 0.0103,0.009 0.0152,0.0134 l 0.002,0.002 c 0.002,0.002 0.002,0.003 0.003,0.005 l 0.009,0.009 0.003,0.003 0.005,0.005 0.003,0.003 0.005,0.005 0.003,0.003 0.005,0.005 0.003,0.003 0.005,0.005 c 0.003,0.003 0.009,0.007 0.0118,0.0101 0.002,0.002 0.003,0.005 0.005,0.007 l 0.005,0.005 c 0.005,0.005 0.0103,0.009 0.0152,0.0134 l 0.003,0.003 0.003,0.003 0.003,0.003 0.003,0.003 0.003,0.003 0.002,0.002 0,0.002 0.002,0.002 0.005,0.005 0.007,0.007 0.005,0.005 0.003,0.003 0.003,0.003 0.005,0.005 0.005,0.005 0.002,0.002 0.003,0.003 0.002,0.002 0.002,0 0.003,0.003 0.002,0.002 0,0.002 0.002,0.002 0.002,0 0.003,0.003 0.002,0.002 0,0.002 0.002,0.002 0.002,0.002 0.003,0.003 0.002,0.002 0.002,0.002 0.002,0.002 0.002,0.002 0.002,0.002 0.002,0.002 0.002,0.002 0.002,0 0.002,0.002 0.002,0.002 0,0.002 c 2.7e-4,2.8e-4 0.002,-2.7e-4 0.002,0 l 0,0.002 c 2.8e-4,2.7e-4 0.002,-2.7e-4 0.002,0 l 0.003,0.003 0.002,0.002 0,0.002 c 2.7e-4,2.7e-4 0.002,-2.8e-4 0.002,0 l 0,0.002 c 2.6e-4,2.7e-4 0.002,-2.8e-4 0.002,0 l 0,0.002 c 2.7e-4,2.7e-4 0.002,-2.7e-4 0.002,0 0.19954,0.20022 0.41027,0.38866 0.61361,0.58502 l 0.002,0.002 c 0.15024,0.14504 0.3016,0.28914 0.4539,0.43204 0.0729,0.0683 0.14347,0.13898 0.21686,0.20677 0.002,0.002 0.004,0.003 0.007,0.005 0.0518,0.0479 0.10094,0.0986 0.15298,0.14625 0.0167,0.0152 0.0321,0.0318 0.0487,0.0471 0.0299,0.0273 0.0575,0.0569 0.0874,0.0841 0.017,0.0155 0.0334,0.0316 0.0504,0.0471 5.8e-4,5.3e-4 8.6e-4,8.6e-4 0.002,0.002 l 0.003,0.003 0.0134,0.0134 0.005,0.005 0.0101,0.0101 0.002,0.002 c 3e-4,2.8e-4 0.002,-2.7e-4 0.002,0 0.38358,0.34654 0.78255,0.67596 1.17846,1.00868 0.0974,0.0819 0.19105,0.16784 0.28916,0.2488 0.0926,0.0764 0.18073,0.15801 0.27401,0.23367 l 0.002,0.002 0.002,0.002 0.002,0.002 0.002,0.002 0.002,0.002 c 0.49496,0.40135 1.00494,0.78427 1.51805,1.16333 0.0392,0.029 0.0767,0.0602 0.116,0.0891 0.009,0.007 0.0178,0.0135 0.0268,0.0201 0.0578,0.0423 0.11182,0.0891 0.16979,0.13113 8.6e-4,8.6e-4 0.002,0.003 0.003,0.003 3.6e-4,2.7e-4 0.002,-2.6e-4 0.002,0 0.62245,0.45073 1.25839,0.88471 1.90639,1.30119 l 0.002,0.002 c 0.64909,0.41714 1.31141,0.81593 1.98541,1.19696 l 0.002,0.002 0.002,0.002 c 0.98161,0.55477 1.9985,1.05459 3.03105,1.52814 0.38585,0.17694 0.76892,0.36447 1.16166,0.52954 0.72179,0.30329 1.45438,0.58544 2.19891,0.84729 l 0.002,0.002 c 5e-4,1.7e-4 8.6e-4,-1.8e-4 0.002,0 0.51671,0.20532 1.04008,0.40116 1.56344,0.58503 0.52454,0.18425 1.05141,0.35828 1.58194,0.52115 5.1e-4,1.5e-4 8.6e-4,-1.6e-4 0.002,0 0.0942,0.0289 0.18977,0.0524 0.28411,0.0806 0.43711,0.13082 0.874,0.26009 1.31464,0.37657 1.07161,0.28325 2.15271,0.52363 3.2412,0.72288 0.54424,0.0996 1.09,0.18844 1.6374,0.2673 5.5e-4,7e-5 8.6e-4,-8e-5 0.002,0 0.0682,0.01 0.13684,0.0157 0.20509,0.0252 0.98322,0.13692 1.9705,0.2419 2.96045,0.31269 0.0437,0.003 0.0874,0.009 0.13113,0.0118 5.5e-4,4e-5 8.6e-4,-4e-5 0.002,0 0.55105,0.0377 1.10214,0.0649 1.65422,0.0824 5.6e-4,1e-5 8.6e-4,-2e-5 0.002,0 1.10529,0.035 2.21162,0.0301 3.31685,-0.0152 0.55262,-0.0226 1.10437,-0.0551 1.6559,-0.0975 1.10308,-0.0849 2.20383,-0.20996 3.29836,-0.3732 1.09398,-0.16317 2.18324,-0.36502 3.26306,-0.60521 1.0798,-0.24022 2.15262,-0.51952 3.21262,-0.83551 l 0.002,0 c 1.0605,-0.31619 2.10867,-0.67002 3.1437,-1.06079 1.55252,-0.58616 3.07317,-1.25514 4.55247,-2.00558 0.49309,-0.25014 0.98239,-0.50859 1.46593,-0.77667 0.96669,-0.53595 1.91344,-1.10805 2.83773,-1.71475 0.46234,-0.30349 0.91945,-0.6171 1.37012,-0.93807 0.90133,-0.64191 1.77883,-1.31824 2.62927,-2.02911 0.85043,-0.71085 1.674,-1.45567 2.46788,-2.2342 0.39666,-0.38898 0.7869,-0.78627 1.16838,-1.19192 -1.6e-4,-5.2e-4 1.6e-4,-8.6e-4 0,-0.002 -0.13255,-0.43495 -0.25212,-0.8715 -0.35808,-1.30959 -1.2e-4,-5.3e-4 1.3e-4,-8.6e-4 0,-0.002 -0.21211,-0.87723 -0.37208,-1.76104 -0.48416,-2.64776 -0.056,-0.44337 -0.10014,-0.88649 -0.13281,-1.33145 -0.0653,-0.88935 -0.0854,-1.78204 -0.0639,-2.67467 0.0215,-0.89317 0.0852,-1.7874 0.18493,-2.6797 0.0497,-0.44559 0.10887,-0.89188 0.17651,-1.33649 l 0,-0.002 c 0.0677,-0.4446 0.14421,-0.88836 0.22864,-1.33145 1e-4,-5.3e-4 -1e-4,-8.6e-4 0,-0.002 0.0844,-0.4431 0.17727,-0.88534 0.27738,-1.32641 l 0,-0.002 c 0.10014,-0.44106 0.20807,-0.88117 0.32278,-1.31968 0.45949,-1.75615 1.03158,-3.49174 1.68112,-5.18626 0.64939,-1.694 1.37747,-3.35001 2.14679,-4.94922 0.38455,-0.79937 0.78042,-1.58409 1.18183,-2.35356 2.3e-4,-4.5e-4 -2.3e-4,-8.6e-4 0,-0.002 2.00823,-3.84948 4.17259,-7.29868 5.94612,-10.08841 -4e-4,-2.5e-4 -0.002,2.5e-4 -0.002,0 l 0,-0.002 c -6.7e-4,-4.1e-4 -8.6e-4,-8.6e-4 -0.002,-0.002 l -0.002,-0.002 -0.002,-0.002 -0.002,-0.002 -0.002,-0.002 c -8.6e-4,-6.7e-4 -0.003,-8.6e-4 -0.003,-0.002 -8.6e-4,-6.6e-4 -0.003,-8.6e-4 -0.003,-0.002 l 0.002,-0.002 c -8.6e-4,-6.7e-4 -0.003,-8.6e-4 -0.003,-0.002 l -0.002,-0.002 -0.002,-0.002 c -8.6e-4,-6.7e-4 -0.003,-8.6e-4 -0.003,-0.002 l 0.002,-0.002 c -0.002,-8.3e-4 -0.002,-0.003 -0.003,-0.003 -0.002,-8.4e-4 -0.002,-0.003 -0.003,-0.003 -0.003,-0.002 -0.005,-0.005 -0.009,-0.007 -0.002,-8.6e-4 -0.003,-0.003 -0.005,-0.003 l 0,-0.002 c -0.002,-8.4e-4 -0.002,-0.003 -0.003,-0.003 -0.002,-8.6e-4 -0.003,-0.003 -0.005,-0.003 l 0,-0.002 c -0.002,-8.6e-4 -0.003,-0.003 -0.005,-0.003 l 0,-0.002 c -0.002,-8.6e-4 -0.003,-0.003 -0.005,-0.003 l 0,-0.002 c -0.002,-8.6e-4 -0.003,-0.003 -0.005,-0.003 l 0,-0.002 c -0.002,-8.7e-4 -0.003,-0.003 -0.005,-0.003 l 0,-0.002 c -0.003,-0.002 -0.004,-0.003 -0.007,-0.005 l 0.002,-0.002 c -0.003,-0.002 -0.004,-0.003 -0.007,-0.005 -0.003,-0.002 -0.004,-0.003 -0.007,-0.005 l 0.002,-0.002 c -0.003,-0.002 -0.006,-0.003 -0.009,-0.005 l 0.002,-0.002 c -0.003,-0.002 -0.004,-0.003 -0.007,-0.005 -0.003,-0.002 -0.006,-0.003 -0.009,-0.005 l 0.002,-0.002 c -0.003,-0.002 -0.006,-0.003 -0.009,-0.005 6.1e-4,-8.6e-4 8.6e-4,-0.003 0.002,-0.003 -0.003,-0.002 -0.006,-0.003 -0.009,-0.005 l 0.002,-0.002 c -0.003,-0.002 -0.005,-0.005 -0.009,-0.007 -0.003,-0.002 -0.006,-0.003 -0.009,-0.005 6.2e-4,-8.6e-4 8.6e-4,-0.003 0.002,-0.003 -0.003,-0.002 -0.005,-0.005 -0.009,-0.007 -0.003,-0.003 -0.007,-0.004 -0.0101,-0.007 l 0.002,-0.002 c -0.003,-0.003 -0.007,-0.004 -0.0101,-0.007 l 0.002,-0.002 c -0.003,-0.003 -0.007,-0.004 -0.0101,-0.007 l 0.002,-0.002 c -0.003,-0.003 -0.007,-0.004 -0.0101,-0.007 l 0.002,-0.002 c -0.003,-0.003 -0.007,-0.004 -0.0101,-0.007 l 0.002,-0.002 c -0.003,-0.003 -0.007,-0.004 -0.0101,-0.007 6.2e-4,-8.6e-4 8.6e-4,-0.003 0.002,-0.003 -0.003,-0.003 -0.007,-0.004 -0.0101,-0.007 l 0,-0.002 c -0.003,-0.003 -0.007,-0.004 -0.0101,-0.007 6.2e-4,-8.6e-4 8.7e-4,-0.003 0.002,-0.003 -0.004,-0.003 -0.008,-0.006 -0.0118,-0.009 l 0.002,-0.002 c -0.004,-0.003 -0.008,-0.006 -0.0118,-0.009 l 0.002,-0.002 c -0.004,-0.003 -0.008,-0.006 -0.0118,-0.009 l 0.002,-0.002 c -0.004,-0.003 -0.008,-0.006 -0.0118,-0.009 l 0.002,-0.002 c -0.004,-0.003 -0.009,-0.005 -0.0134,-0.009 l 0.002,-0.002 c -0.004,-0.003 -0.008,-0.006 -0.0118,-0.009 l 0.002,-0.002 c -0.004,-0.003 -0.008,-0.006 -0.0118,-0.009 6.2e-4,-8.6e-4 8.7e-4,-0.003 0.002,-0.003 -0.004,-0.003 -0.009,-0.005 -0.0134,-0.009 6.2e-4,-8.6e-4 8.6e-4,-0.003 0.002,-0.003 -0.004,-0.003 -0.009,-0.005 -0.0134,-0.009 l 0.002,-0.002 c -0.004,-0.003 -0.009,-0.005 -0.0134,-0.009 6.1e-4,-8.7e-4 8.6e-4,-0.003 0.002,-0.003 -0.004,-0.003 -0.009,-0.005 -0.0134,-0.009 6.2e-4,-8.6e-4 8.6e-4,-0.003 0.002,-0.003 -0.004,-0.003 -0.009,-0.005 -0.0134,-0.009 6.2e-4,-8.6e-4 8.7e-4,-0.003 0.002,-0.003 -0.004,-0.003 -0.009,-0.007 -0.0134,-0.0101 6.2e-4,-8.6e-4 8.6e-4,-0.003 0.002,-0.003 -0.005,-0.003 -0.01,-0.007 -0.0152,-0.0101 l 0.002,-0.002 c -0.004,-0.003 -0.009,-0.007 -0.0134,-0.0101 6.2e-4,-8.7e-4 8.6e-4,-0.003 0.002,-0.003 -0.005,-0.003 -0.01,-0.007 -0.0152,-0.0101 l 0.002,-0.002 c -0.005,-0.003 -0.01,-0.007 -0.0152,-0.0101 6.2e-4,-8.6e-4 8.6e-4,-0.003 0.002,-0.003 -0.005,-0.003 -0.01,-0.007 -0.0152,-0.0101 6.2e-4,-8.6e-4 8.6e-4,-0.003 0.002,-0.003 -0.005,-0.003 -0.01,-0.007 -0.0151,-0.0101 6.2e-4,-8.6e-4 8.6e-4,-0.003 0.002,-0.003 -0.005,-0.003 -0.01,-0.007 -0.0152,-0.0101 6.2e-4,-8.6e-4 8.6e-4,-0.003 0.002,-0.003 -0.005,-0.003 -0.0113,-0.007 -0.0168,-0.0101 8.6e-4,-0.002 0.003,-0.003 0.003,-0.005 -0.006,-0.003 -0.011,-0.008 -0.0168,-0.0118 l 0.002,-0.002 c -0.005,-0.003 -0.0113,-0.007 -0.0168,-0.0101 8.6e-4,-0.002 0.003,-0.003 0.003,-0.005 -0.006,-0.003 -0.011,-0.008 -0.0168,-0.0118 l 0.002,-0.002 c -0.006,-0.003 -0.011,-0.008 -0.0168,-0.0118 6.2e-4,-8.6e-4 8.6e-4,-0.003 0.002,-0.003 -0.006,-0.003 -0.011,-0.008 -0.0168,-0.0118 6.2e-4,-8.6e-4 8.7e-4,-0.003 0.002,-0.003 -0.006,-0.003 -0.011,-0.008 -0.0168,-0.0118 6.2e-4,-8.6e-4 8.6e-4,-0.003 0.002,-0.003 -0.006,-0.003 -0.011,-0.008 -0.0168,-0.0118 6.2e-4,-8.6e-4 8.6e-4,-0.003 0.002,-0.003 -0.006,-0.004 -0.0123,-0.008 -0.0185,-0.0118 8.7e-4,-0.002 0.003,-0.003 0.003,-0.005 -0.006,-0.004 -0.0123,-0.008 -0.0185,-0.0118 6.2e-4,-8.6e-4 8.6e-4,-0.003 0.002,-0.003 -0.006,-0.004 -0.0123,-0.008 -0.0185,-0.0118 8.6e-4,-0.002 0.003,-0.003 0.003,-0.005 -0.006,-0.004 -0.0123,-0.008 -0.0185,-0.0118 6.2e-4,-8.6e-4 8.7e-4,-0.003 0.002,-0.003 -0.006,-0.004 -0.012,-0.009 -0.0185,-0.0134 6.2e-4,-8.6e-4 8.6e-4,-0.003 0.002,-0.003 -0.006,-0.004 -0.0121,-0.009 -0.0185,-0.0134 6.2e-4,-8.6e-4 8.6e-4,-0.003 0.002,-0.003 -0.006,-0.004 -0.012,-0.009 -0.0185,-0.0134 6.1e-4,-8.6e-4 8.6e-4,-0.003 0.002,-0.003 -0.006,-0.004 -0.0121,-0.009 -0.0185,-0.0134 6.1e-4,-8.6e-4 8.6e-4,-0.003 0.002,-0.003 -0.007,-0.004 -0.0133,-0.009 -0.0201,-0.0134 8.6e-4,-0.002 0.003,-0.003 0.003,-0.005 -0.007,-0.004 -0.0133,-0.009 -0.0201,-0.0134 6.2e-4,-8.6e-4 8.6e-4,-0.003 0.002,-0.003 -0.007,-0.004 -0.0133,-0.009 -0.0201,-0.0134 8.6e-4,-0.002 0.003,-0.003 0.003,-0.005 -0.007,-0.004 -0.0133,-0.009 -0.0201,-0.0134 6.1e-4,-8.6e-4 8.6e-4,-0.003 0.002,-0.003 -0.007,-0.004 -0.0146,-0.009 -0.0219,-0.0134 8.6e-4,-0.002 0.003,-0.003 0.003,-0.005 -0.007,-0.004 -0.0146,-0.009 -0.0219,-0.0134 8.6e-4,-0.002 0.003,-0.003 0.003,-0.005 -0.007,-0.004 -0.0146,-0.009 -0.0219,-0.0134 8.6e-4,-0.002 0.003,-0.003 0.003,-0.005 -0.007,-0.004 -0.0146,-0.009 -0.0219,-0.0134 8.6e-4,-0.002 0.003,-0.003 0.003,-0.005 -0.008,-0.005 -0.0144,-0.0104 -0.0219,-0.0152 8.6e-4,-0.002 0.003,-0.003 0.003,-0.005 -0.008,-0.005 -0.0144,-0.0103 -0.0219,-0.0152 6.1e-4,-8.6e-4 8.6e-4,-0.003 0.002,-0.003 -0.008,-0.005 -0.0144,-0.0104 -0.0219,-0.0151 8.6e-4,-0.002 0.003,-0.003 0.003,-0.005 -0.008,-0.005 -0.0157,-0.0101 -0.0235,-0.0151 8.6e-4,-0.002 0.003,-0.003 0.003,-0.005 -0.008,-0.005 -0.0144,-0.0104 -0.0219,-0.0152 6.1e-4,-8.6e-4 8.6e-4,-0.003 0.002,-0.003 -0.008,-0.005 -0.0157,-0.0102 -0.0235,-0.0152 8.6e-4,-0.002 0.003,-0.003 0.003,-0.005 -0.008,-0.005 -0.0154,-0.0116 -0.0235,-0.0168 8.6e-4,-0.002 0.003,-0.003 0.003,-0.005 -0.008,-0.005 -0.0157,-0.0102 -0.0235,-0.0152 8.6e-4,-0.002 0.003,-0.003 0.003,-0.005 -0.008,-0.005 -0.0154,-0.0116 -0.0236,-0.0168 6.2e-4,-8.6e-4 8.6e-4,-0.003 0.002,-0.003 -0.008,-0.005 -0.0154,-0.0116 -0.0235,-0.0168 8.6e-4,-0.002 0.003,-0.003 0.003,-0.005 -0.008,-0.005 -0.0154,-0.0116 -0.0235,-0.0168 6.2e-4,-8.6e-4 8.6e-4,-0.003 0.002,-0.003 -0.009,-0.005 -0.0167,-0.0114 -0.0252,-0.0168 8.6e-4,-0.002 0.003,-0.003 0.003,-0.005 -0.008,-0.005 -0.0154,-0.0116 -0.0235,-0.0168 8.6e-4,-0.002 0.003,-0.003 0.003,-0.005 -0.009,-0.005 -0.0167,-0.0114 -0.0252,-0.0168 8.6e-4,-0.002 0.003,-0.003 0.003,-0.005 -0.009,-0.006 -0.018,-0.0111 -0.0269,-0.0168 8.7e-4,-0.002 0.003,-0.003 0.003,-0.005 -0.009,-0.005 -0.0167,-0.0114 -0.0252,-0.0168 8.6e-4,-0.002 0.003,-0.003 0.003,-0.005 -0.009,-0.005 -0.0167,-0.0114 -0.0252,-0.0168 8.6e-4,-0.002 0.002,-0.005 0.003,-0.007 -0.009,-0.006 -0.018,-0.0111 -0.0268,-0.0168 8.6e-4,-0.002 0.003,-0.003 0.003,-0.005 -0.009,-0.005 -0.0167,-0.0114 -0.0252,-0.0168 8.6e-4,-0.002 0.002,-0.005 0.003,-0.007 -0.009,-0.006 -0.018,-0.0111 -0.0269,-0.0168 8.6e-4,-0.002 0.003,-0.003 0.003,-0.005 -0.009,-0.006 -0.0177,-0.0127 -0.0268,-0.0185 8.6e-4,-0.002 0.003,-0.003 0.003,-0.005 -0.009,-0.006 -0.0177,-0.0127 -0.0268,-0.0185 8.6e-4,-0.002 0.003,-0.003 0.003,-0.005 -0.009,-0.006 -0.0177,-0.0127 -0.0268,-0.0185 8.6e-4,-0.002 0.003,-0.003 0.003,-0.005 -0.009,-0.006 -0.0177,-0.0127 -0.0269,-0.0185 8.6e-4,-0.002 0.002,-0.005 0.003,-0.007 -0.01,-0.006 -0.019,-0.0124 -0.0286,-0.0185 8.6e-4,-0.002 0.003,-0.003 0.003,-0.005 -0.009,-0.006 -0.0177,-0.0127 -0.0268,-0.0185 8.6e-4,-0.002 0.002,-0.005 0.003,-0.007 -0.01,-0.006 -0.019,-0.0124 -0.0286,-0.0185 8.7e-4,-0.002 0.003,-0.003 0.003,-0.005 -0.01,-0.006 -0.0188,-0.0139 -0.0286,-0.0202 8.6e-4,-0.002 0.003,-0.003 0.003,-0.005 -0.009,-0.006 -0.0177,-0.0127 -0.0268,-0.0185 8.6e-4,-0.002 0.002,-0.005 0.003,-0.007 -0.01,-0.006 -0.0188,-0.0139 -0.0286,-0.0201 8.6e-4,-0.002 0.003,-0.003 0.003,-0.005 -0.0102,-0.007 -0.0201,-0.0137 -0.0303,-0.0201 8.6e-4,-0.002 0.003,-0.003 0.003,-0.005 -0.01,-0.006 -0.0188,-0.0139 -0.0286,-0.0201 8.6e-4,-0.002 0.003,-0.003 0.003,-0.005 -0.0102,-0.007 -0.02,-0.0137 -0.0303,-0.0201 0.002,-0.003 0.003,-0.004 0.005,-0.007 -0.0102,-0.007 -0.0201,-0.0137 -0.0303,-0.0201 8.6e-4,-0.002 0.003,-0.003 0.003,-0.005 -0.0102,-0.007 -0.02,-0.0137 -0.0303,-0.0201 0.002,-0.003 0.003,-0.004 0.005,-0.007 -0.0102,-0.007 -0.0201,-0.0137 -0.0303,-0.0201 8.6e-4,-0.002 0.002,-0.005 0.003,-0.007 -0.0102,-0.007 -0.02,-0.0137 -0.0303,-0.0202 8.6e-4,-0.002 0.002,-0.005 0.003,-0.007 -0.0102,-0.007 -0.0201,-0.0137 -0.0303,-0.0201 8.6e-4,-0.002 0.002,-0.005 0.003,-0.007 -0.0102,-0.007 -0.0201,-0.0137 -0.0303,-0.0201 8.6e-4,-0.002 0.002,-0.005 0.003,-0.007 -0.0109,-0.007 -0.0211,-0.0149 -0.0319,-0.0219 8.6e-4,-0.002 0.003,-0.003 0.003,-0.005 -0.0102,-0.007 -0.0201,-0.0137 -0.0303,-0.0201 8.6e-4,-0.002 0.002,-0.005 0.003,-0.007 -0.0109,-0.007 -0.0211,-0.0149 -0.0319,-0.0219 8.6e-4,-0.002 0.002,-0.005 0.003,-0.007 -0.0109,-0.007 -0.0211,-0.0149 -0.0319,-0.0219 0.002,-0.003 0.003,-0.004 0.005,-0.007 -0.0109,-0.007 -0.0211,-0.0149 -0.0319,-0.0219 8.6e-4,-0.002 0.003,-0.003 0.003,-0.005 -0.0109,-0.007 -0.0211,-0.0149 -0.0319,-0.0219 8.6e-4,-0.002 0.002,-0.005 0.003,-0.007 -0.0109,-0.007 -0.0211,-0.0149 -0.0319,-0.0219 8.6e-4,-0.002 0.002,-0.005 0.003,-0.007 -0.0113,-0.007 -0.0224,-0.0147 -0.0336,-0.0219 0.002,-0.003 0.003,-0.006 0.005,-0.009 -0.0109,-0.007 -0.0211,-0.0149 -0.0319,-0.0219 8.6e-4,-0.002 0.002,-0.005 0.003,-0.007 -0.0115,-0.008 -0.022,-0.0162 -0.0337,-0.0236 8.6e-4,-0.002 0.003,-0.003 0.003,-0.005 -0.0113,-0.007 -0.0224,-0.0147 -0.0336,-0.0219 0.002,-0.003 0.003,-0.006 0.005,-0.009 -0.0115,-0.008 -0.022,-0.0162 -0.0336,-0.0235 8.6e-4,-0.002 0.003,-0.003 0.003,-0.005 -0.012,-0.008 -0.0234,-0.0159 -0.0353,-0.0236 0.002,-0.003 0.003,-0.004 0.005,-0.007 -0.012,-0.008 -0.0233,-0.0159 -0.0353,-0.0235 0.002,-0.003 0.003,-0.004 0.005,-0.007 -0.012,-0.008 -0.0234,-0.0159 -0.0353,-0.0235 0.002,-0.003 0.003,-0.004 0.005,-0.007 -0.012,-0.008 -0.0234,-0.0159 -0.0353,-0.0236 0.002,-0.003 0.003,-0.004 0.005,-0.007 -0.012,-0.008 -0.0233,-0.0159 -0.0353,-0.0235 0.002,-0.003 0.003,-0.006 0.005,-0.009 -0.012,-0.008 -0.0234,-0.0159 -0.0353,-0.0235 8.6e-4,-0.002 0.002,-0.005 0.003,-0.007 -0.012,-0.008 -0.0234,-0.0159 -0.0353,-0.0235 0.002,-0.003 0.003,-0.006 0.005,-0.009 -0.012,-0.008 -0.0233,-0.0159 -0.0353,-0.0236 8.6e-4,-0.002 0.002,-0.005 0.003,-0.007 -0.0126,-0.008 -0.0244,-0.0172 -0.037,-0.0252 0.002,-0.003 0.003,-0.004 0.005,-0.007 -0.0126,-0.008 -0.0243,-0.0172 -0.037,-0.0252 0.002,-0.003 0.003,-0.004 0.005,-0.007 -0.0126,-0.008 -0.0244,-0.0172 -0.037,-0.0252 0.002,-0.003 0.003,-0.004 0.005,-0.007 -0.0126,-0.008 -0.0244,-0.0172 -0.037,-0.0252 0.002,-0.003 0.003,-0.006 0.005,-0.009 -0.0126,-0.008 -0.0244,-0.0172 -0.037,-0.0252 0.002,-0.003 0.003,-0.004 0.005,-0.007 -0.0126,-0.008 -0.0244,-0.0172 -0.037,-0.0252 8.6e-4,-0.002 0.002,-0.005 0.003,-0.007 -0.0126,-0.008 -0.0244,-0.0172 -0.037,-0.0252 0.002,-0.003 0.003,-0.006 0.005,-0.009 -0.013,-0.009 -0.0256,-0.017 -0.0386,-0.0252 0.002,-0.003 0.003,-0.006 0.005,-0.009 -0.0126,-0.008 -0.0244,-0.0172 -0.037,-0.0252 8.6e-4,-0.002 0.002,-0.005 0.003,-0.007 -0.013,-0.009 -0.0256,-0.017 -0.0386,-0.0252 0.002,-0.003 0.003,-0.006 0.005,-0.009 -0.013,-0.009 -0.0256,-0.017 -0.0386,-0.0252 0.002,-0.003 0.003,-0.006 0.005,-0.009 -0.0132,-0.009 -0.0254,-0.0184 -0.0386,-0.0268 0.002,-0.003 0.003,-0.006 0.005,-0.009 -0.0137,-0.009 -0.0267,-0.0182 -0.0404,-0.0269 0.002,-0.003 0.003,-0.004 0.005,-0.007 -0.013,-0.009 -0.0256,-0.017 -0.0386,-0.0252 0.002,-0.003 0.003,-0.006 0.005,-0.009 -0.0137,-0.009 -0.0267,-0.0182 -0.0404,-0.0268 0.002,-0.003 0.003,-0.006 0.005,-0.009 -0.0132,-0.009 -0.0254,-0.0184 -0.0386,-0.0269 0.002,-0.003 0.003,-0.006 0.005,-0.009 -0.0137,-0.009 -0.0267,-0.0182 -0.0404,-0.0269 0.002,-0.003 0.003,-0.006 0.005,-0.009 -0.0137,-0.009 -0.0267,-0.0182 -0.0404,-0.0268 0.002,-0.003 0.003,-0.006 0.005,-0.009 -0.0137,-0.009 -0.0267,-0.0182 -0.0404,-0.0268 0.002,-0.003 0.003,-0.006 0.005,-0.009 -0.0143,-0.009 -0.0277,-0.0194 -0.042,-0.0286 0.002,-0.003 0.003,-0.004 0.005,-0.007 -0.0137,-0.009 -0.0267,-0.0182 -0.0404,-0.0269 0.002,-0.003 0.003,-0.006 0.005,-0.009 -0.0137,-0.009 -0.0267,-0.0182 -0.0404,-0.0269 0.002,-0.003 0.003,-0.007 0.005,-0.0101 -0.0143,-0.009 -0.0277,-0.0195 -0.042,-0.0286 0.002,-0.003 0.003,-0.004 0.005,-0.007 -0.0143,-0.009 -0.0277,-0.0195 -0.042,-0.0286 0.002,-0.003 0.003,-0.006 0.005,-0.009 -0.0143,-0.009 -0.0277,-0.0195 -0.042,-0.0286 0.002,-0.003 0.003,-0.006 0.005,-0.009 -0.0143,-0.009 -0.0277,-0.0194 -0.042,-0.0286 0.002,-0.003 0.003,-0.006 0.005,-0.009 -0.0143,-0.009 -0.0277,-0.0195 -0.042,-0.0286 0.002,-0.003 0.003,-0.006 0.005,-0.009 -0.0143,-0.009 -0.0277,-0.0195 -0.042,-0.0286 0.002,-0.003 0.003,-0.006 0.005,-0.009 -0.0147,-0.009 -0.029,-0.0192 -0.0437,-0.0286 0.002,-0.003 0.004,-0.007 0.007,-0.0101 -0.0147,-0.009 -0.029,-0.0192 -0.0437,-0.0286 0.002,-0.003 0.003,-0.006 0.005,-0.009 -0.0147,-0.009 -0.029,-0.0192 -0.0437,-0.0286 0.002,-0.003 0.004,-0.007 0.007,-0.0101 -0.015,-0.009 -0.0287,-0.0207 -0.0437,-0.0303 0.002,-0.003 0.003,-0.006 0.005,-0.009 -0.0147,-0.009 -0.029,-0.0192 -0.0437,-0.0286 0.002,-0.003 0.003,-0.006 0.005,-0.009 -0.015,-0.009 -0.0288,-0.0207 -0.0437,-0.0303 0.002,-0.003 0.003,-0.006 0.005,-0.009 -0.0153,-0.01 -0.03,-0.0205 -0.0454,-0.0303 0.002,-0.003 0.004,-0.007 0.007,-0.0101 -0.015,-0.009 -0.0288,-0.0207 -0.0437,-0.0303 0.002,-0.003 0.003,-0.006 0.005,-0.009 -0.0153,-0.01 -0.03,-0.0205 -0.0454,-0.0303 0.002,-0.003 0.003,-0.006 0.005,-0.009 -0.0153,-0.01 -0.03,-0.0205 -0.0454,-0.0303 0.002,-0.003 0.004,-0.007 0.007,-0.0101 -0.0154,-0.01 -0.03,-0.0205 -0.0454,-0.0303 0.002,-0.003 0.003,-0.006 0.005,-0.009 -0.0153,-0.01 -0.03,-0.0205 -0.0454,-0.0302 0.002,-0.003 0.003,-0.007 0.005,-0.0101 -0.0154,-0.01 -0.03,-0.0205 -0.0454,-0.0303 0.002,-0.003 0.003,-0.007 0.005,-0.0101 -0.0154,-0.01 -0.03,-0.0205 -0.0454,-0.0302 0.002,-0.003 0.003,-0.007 0.005,-0.0101 -0.0154,-0.01 -0.03,-0.0205 -0.0454,-0.0303 0.002,-0.003 0.003,-0.007 0.005,-0.0101 -0.0154,-0.01 -0.03,-0.0205 -0.0454,-0.0302 0.002,-0.003 0.003,-0.007 0.005,-0.0101 -0.016,-0.0101 -0.0311,-0.0218 -0.0471,-0.0319 0.002,-0.003 0.004,-0.007 0.007,-0.0101 -0.016,-0.0102 -0.0311,-0.0218 -0.0471,-0.0319 0.002,-0.003 0.003,-0.006 0.005,-0.009 -0.0164,-0.0104 -0.0324,-0.0215 -0.0487,-0.0319 0.002,-0.003 0.004,-0.007 0.007,-0.0101 -0.016,-0.0101 -0.0311,-0.0218 -0.0471,-0.0319 0.002,-0.003 0.004,-0.007 0.007,-0.0101 -0.0164,-0.0104 -0.0324,-0.0215 -0.0487,-0.0319 0.002,-0.003 0.004,-0.007 0.007,-0.0101 -0.0164,-0.0104 -0.0324,-0.0215 -0.0487,-0.0319 0.002,-0.003 0.005,-0.007 0.007,-0.0101 -0.0164,-0.0104 -0.0324,-0.0215 -0.0487,-0.0319 0.002,-0.003 0.004,-0.007 0.007,-0.0101 -0.0167,-0.0106 -0.0321,-0.023 -0.0487,-0.0337 0.002,-0.003 0.003,-0.006 0.005,-0.009 -0.0167,-0.0106 -0.0321,-0.023 -0.0487,-0.0337 0.002,-0.003 0.004,-0.007 0.007,-0.0101 -2.47765,-1.57347 -4.80662,-3.36285 -6.98841,-5.3157 l -0.002,-0.002 c -0.23399,-0.26147 -0.47709,-0.51418 -0.70608,-0.78004 l 0,-0.002 c -5.1e-4,-6e-4 -8.6e-4,-8.6e-4 -0.002,-0.002 -0.002,-0.003 -0.004,-0.004 -0.007,-0.007 -0.38165,-0.44332 -0.74543,-0.90152 -1.1129,-1.35666 -0.18561,-0.2299 -0.37956,-0.45307 -0.56149,-0.6859 -2.1e-4,-2.6e-4 -0.002,2.7e-4 -0.002,0 l 0,-0.002 c -2.1e-4,-2.7e-4 -0.002,2.6e-4 -0.002,0 l 0,-0.002 -0.002,-0.002 c -0.27594,-0.3532 -0.53457,-0.71951 -0.8019,-1.07927 -0.25911,-0.34871 -0.52579,-0.691 -0.77668,-1.04566 -0.51099,-0.72229 -1.00501,-1.45648 -1.48106,-2.20227 -1.6e-4,-2.4e-4 -0.002,2.5e-4 -0.002,0 l 0,-0.002 c -0.3445,-0.53974 -0.66954,-1.09114 -0.99523,-1.64246 -0.0496,-0.084 -0.10211,-0.16623 -0.1513,-0.25048 -0.0737,-0.12619 -0.15428,-0.2498 -0.22695,-0.37657 -1.3e-4,-2.3e-4 -0.002,2.3e-4 -0.002,0 l 0,-0.002 c -0.43931,-0.76658 -0.86035,-1.54329 -1.26252,-2.33004 l 0,-0.002 c -1.1e-4,-2.2e-4 -0.002,2.1e-4 -0.002,0 l 0,-0.002 c -0.4021,-0.78679 -0.78441,-1.58354 -1.14821,-2.38888 -9e-5,-1.9e-4 -0.002,2e-4 -0.002,0 l 0,-0.002 c -0.36399,-0.80582 -0.70772,-1.62158 -1.03221,-2.44434 -7e-5,-1.8e-4 -0.002,1.8e-4 -0.002,0 l 0,-0.002 c -0.25202,-0.63908 -0.48185,-1.28655 -0.70943,-1.93498 -0.0174,-0.0495 -0.0366,-0.0984 -0.0538,-0.14793 -0.003,-0.008 -0.006,-0.0157 -0.009,-0.0235 -0.003,-0.008 -0.006,-0.0157 -0.009,-0.0235 -0.0421,-0.12134 -0.0916,-0.24147 -0.13281,-0.36312 -0.28388,-0.83828 -0.54806,-1.68316 -0.79013,-2.53513 -1.4e-4,-5.2e-4 1.6e-4,-8.6e-4 0,-0.002 -0.0497,-0.17476 -0.0883,-0.35258 -0.13617,-0.52787 -0.18547,-0.67937 -0.36626,-1.36073 -0.5245,-2.04761 -1.44725,-1.41508 -3.07041,-3.0546 -4.30851,-4.27912 -45.43917,-21.02457 -83.8967,39.50097 -51.67599,73.37256 z" style="fill:#0b2228;fill-opacity:0.7692308" sodipodi:nodetypes="ccsssccccsccccccssssscsccsccccccsccccsccccscccccsccscccccccccccsccsscccccccccscccccsccccscccccccscccccccsssccscsscccccscsccccscccscccccccscccsccccscccccsccscccccccccscssccccccccccccccccccccccccccccccccccccccccccscccccscscccccccccccsccccccccccccccccccccccccccccccccccccccccccccccccccsssccsscccccsccccccccccscccscsccccccccccccccccccccccccccccccsccccsccccccccccccccccccccccccccccccccccccccccccccccccccccccccccccccccccccccccccccccccccccccccccccccccccccccccccccccccccccccccccccccccccccccccccccccccccccccccccccccccccccccccccccccccccccccccccccccccccccccccccccccccccccccccccccccccccccccccccccccccccccccccccccccccccccccccccccccccccccccccccccccccccccccccccccccccccccccccccccccccccccccccccccccccccccccccccscscccccsccccscccsccsccscccccccccccc"/>
      <path inkscape:connector-curvature="0" style="fill:#0b2228;fill-opacity:0.7692308" d="m 218.30621,142.86371 c 2.7e-4,2.7e-4 -2.8e-4,0.002 0,0.002 1.87587,1.75043 3.68335,3.66884 5.30806,5.27674 0.0361,0.0339 0.0713,0.0688 0.10759,0.10255 0.0157,0.0146 0.0298,0.0308 0.0454,0.0454 3.24496,3.03305 6.93847,5.5855 10.9878,7.49443 11.94049,-8.34482 29.84574,-3.98545 40.08967,-1.34657 3.53447,-13.74768 12.61005,-25.91516 24.78138,-33.22062 2.41463,-13.79589 -2.76691,-27.674652 -12.14272,-37.571348 -1.43963,-1.449095 -3.02408,-3.024409 -4.30298,-4.306142 -40.20264,-13.498266 -84.82611,36.55021 -64.8742,63.52356 z" id="path5898" sodipodi:nodetypes="ccccccccccc"/>
      <path style="fill:#0b2228;fill-opacity:0.7692308" d="m 292.58866,195.56091 c 1.44138,1.39679 2.78462,2.76829 4.23205,4.21915 14.14972,-0.89196 28.56167,3.99717 39.25305,13.30471 24.01933,-3.46327 41.78495,-29.26281 36.79682,-52.9371 -1.52744,-9.38488 -7.23243,-18.64635 -14.07882,-25.14713 -76.40263,-12.8343 -62.02777,12.40937 -66.2031,60.56037 z" id="path10820" inkscape:connector-curvature="0" sodipodi:nodetypes="cccccc"/>
      <path style="fill:#0b2228;fill-opacity:0.7692308" d="m 266.39005,285.47476 c 14.04725,15.21319 39.04571,19.61864 56.79806,8.37513 20.94748,-11.57379 28.92898,-41.39311 16.28113,-61.77887 -3.25855,-5.8918 -8.19867,-10.49202 -12.96188,-15.12273 -23.90235,-8.25364 -79.29068,39.02005 -60.11731,68.52647 z" id="path11684" inkscape:connector-curvature="0" sodipodi:nodetypes="ccccc"/>
      <path style="fill:#0b2228;fill-opacity:0.7692308" d="m 172.71497,282.59323 c 5.12457,5.19962 10.38927,10.49513 17.23831,13.41217 18.11436,8.41795 41.93184,3.75779 54.29427,-12.31008 11.64232,-13.67491 13.9401,-34.88587 4.91873,-50.43736 -1.42081,-1.38176 -4.1897,-4.17516 -4.1897,-4.17516 z" id="path12952" inkscape:connector-curvature="0" sodipodi:nodetypes="cccccc"/>
    </g>
    <path style="opacity:1;fill:#0b2228;fill-opacity:1;fill-rule:nonzero;stroke:#000000;stroke-width:0;stroke-linecap:square;stroke-linejoin:miter;stroke-miterlimit:4;stroke-dasharray:none;stroke-opacity:1" d="m 252.36703,144.00067 c -17.39669,-0.21824 -34.19479,11.00501 -40.65057,27.16115 -6.88876,16.05478 -2.88053,35.96408 9.68779,48.0993 4.18798,4.20678 8.25356,8.52746 13.61079,11.34706 14.70303,8.53062 34.2958,7.34904 47.84354,-2.93157 13.93194,-10.05919 20.80533,-28.75145 16.6443,-45.43311 -1.88941,-8.68619 -6.80785,-16.43264 -13.15398,-22.49468 -4.92188,-5.11096 -10.42827,-9.82565 -17.14342,-12.40885 -5.31733,-2.2013 -11.09599,-3.36605 -16.83845,-3.3393 z" id="path15538" inkscape:connector-curvature="0"/>
    <g style="fill:#62bdd4;fill-opacity:1" id="g25041">
      <path inkscape:connector-curvature="0" style="fill:#62bdd4;fill-opacity:1;stroke:none" d="M 297.6781,116.90112 C 301.9644,92.411436 282.31547,67.657262 257.75593,65.388599 232.7249,61.926385 207.9237,82.995854 207.31634,108.26697 c -1.14272,17.79538 9.36146,35.59802 25.4909,43.20173 11.9405,-8.34482 29.84492,-3.98608 40.08885,-1.3472 3.53448,-13.74768 12.61068,-25.91493 24.78201,-33.22038 z" id="path6386"/>
      <path inkscape:connector-curvature="0" style="fill:#62bdd4;fill-opacity:1;stroke:none" d="m 199.05622,123.17534 c -21.96653,-11.64429 -51.58104,-0.60653 -61.32801,22.04993 -11.02779,22.73605 1.34648,52.83425 25.19308,61.22108 16.5713,6.58587 36.7486,2.0971 48.96442,-10.89326 -4.24661,-13.9348 5.43154,-29.61603 11.10685,-38.54314 -11.98256,-7.60973 -20.74957,-20.00154 -23.93634,-33.83461 z" id="path6384"/>
      <path inkscape:connector-curvature="0" style="fill:#62bdd4;fill-opacity:1;stroke:none" d="m 174.54742,218.90915 c -17.86146,17.53422 -16.55755,49.5824 2.66832,65.60824 17.94787,16.62566 49.13482,14.68353 64.51936,-4.49196 12.10047,-13.72555 14.6008,-34.93692 5.61234,-50.95197 -14.56505,-0.26734 -26.48807,-14.31762 -33.22447,-22.47376 -10.94013,9.04464 -25.43468,13.55332 -39.57555,12.30945 z" id="path6382"/>
      <path inkscape:connector-curvature="0" style="fill:#62bdd4;fill-opacity:1;stroke:none" d="m 258.02214,271.80162 c 11.15649,22.40568 42.03907,31.06908 63.22171,17.73647 21.35818,-11.93181 29.14842,-42.19255 15.66552,-62.74969 -9.31454,-15.74967 -28.71513,-24.68229 -46.72395,-21.08266 -4.7551,13.76957 -21.8021,20.76726 -31.64072,24.65357 5.22123,13.19955 5.03035,28.37816 -0.52256,41.44231 z" id="path6380"/>
      <path inkscape:connector-curvature="0" style="fill:#62bdd4;fill-opacity:1;stroke:none" d="m 334.12109,208.75724 c 24.75659,-3.68674 42.53918,-30.38067 36.40492,-54.64653 -4.7833,-24.52899 -32.16722,-41.10215 -56.11668,-33.96071 -17.27753,4.41227 -30.96288,19.90364 -33.21019,37.59331 11.62624,8.77741 13.0136,27.1525 13.6694,37.71052 14.16704,-0.88679 28.54349,3.9853 39.25255,13.30341 z" id="path7061"/>
    </g>
    <circle r="38" style="opacity:1;fill:#d7eef4;fill-opacity:1;fill-rule:nonzero;stroke:#0b2228;stroke-width:14.55616093;stroke-linecap:square;stroke-linejoin:miter;stroke-miterlimit:4;stroke-dasharray:none;stroke-opacity:1" id="path6498" cx="252.36703" cy="188"/>
  </g>
</svg>
